<svg width="162" height="48" viewBox="0 0 162 48" fill="none" xmlns="http://www.w3.org/2000/svg">
<g clip-path="url(#clip0_140_4461)">
<path d="M156 0.00012207H6C2.68629 0.00012207 0 2.68641 0 6.00012V42.0001C0 45.3138 2.68629 48.0001 6 48.0001H156C159.314 48.0001 162 45.3138 162 42.0001V6.00012C162 2.68641 159.314 0.00012207 156 0.00012207Z" fill="black"/>
<path d="M156 0.960122C157.337 0.960122 158.619 1.49112 159.564 2.4363C160.509 3.38149 161.04 4.66343 161.04 6.00012V42.0001C161.04 43.3368 160.509 44.6188 159.564 45.5639C158.619 46.5091 157.337 47.0401 156 47.0401H6C4.66331 47.0401 3.38137 46.5091 2.43618 45.5639C1.491 44.6188 0.96 43.3368 0.96 42.0001V6.00012C0.96 4.66343 1.491 3.38149 2.43618 2.4363C3.38137 1.49112 4.66331 0.960122 6 0.960122H156ZM156 0.00012207H6C4.4087 0.00012207 2.88258 0.632263 1.75736 1.75748C0.632141 2.8827 0 4.40882 0 6.00012V42.0001C0 43.5914 0.632141 45.1175 1.75736 46.2428C2.88258 47.368 4.4087 48.0001 6 48.0001H156C157.591 48.0001 159.117 47.368 160.243 46.2428C161.368 45.1175 162 43.5914 162 42.0001V6.00012C162 4.40882 161.368 2.8827 160.243 1.75748C159.117 0.632263 157.591 0.00012207 156 0.00012207Z" fill="#A6A6A6"/>
<path d="M38.5354 23.1756C38.5022 19.4905 41.5527 17.6977 41.6922 17.6143C39.9646 15.0954 37.2868 14.7513 36.3458 14.7238C34.0968 14.4872 31.9153 16.0696 30.7696 16.0696C29.6011 16.0696 27.8369 14.7467 25.9355 14.7856C23.4887 14.8233 21.1997 16.2399 19.9442 18.4398C17.3534 22.9252 19.2857 29.5167 21.7679 33.1423C23.0096 34.918 24.4605 36.9006 26.3597 36.8309C28.2176 36.7542 28.9117 35.6463 31.1538 35.6463C33.3754 35.6463 34.0271 36.8309 35.964 36.7863C37.958 36.7542 39.2134 35.0026 40.4117 33.2109C41.8466 31.1758 42.4228 29.1714 42.4457 29.0685C42.3988 29.0525 38.5731 27.5924 38.5354 23.1756Z" fill="white"/>
<path d="M34.8766 12.3388C35.8759 11.0891 36.5596 9.38892 36.3698 7.66357C34.9234 7.7276 33.1146 8.66402 32.073 9.88628C31.1515 10.9633 30.3283 12.7287 30.5409 14.3889C32.1656 14.5101 33.8338 13.5691 34.8766 12.3388Z" fill="white"/>
<path d="M65.4237 36.5758H62.8271L61.4048 32.1064H56.4609L55.106 36.5758H52.578L57.4762 21.3599H60.5015L65.4237 36.5758ZM60.976 30.2313L59.6897 26.2581C59.5537 25.8522 59.2987 24.8963 58.9225 23.3916H58.8768C58.727 24.0388 58.4858 24.9946 58.1542 26.2581L56.8908 30.2313H60.976Z" fill="white"/>
<path d="M78.02 30.955C78.02 32.821 77.5157 34.2959 76.5073 35.3787C75.604 36.3425 74.4824 36.8239 73.1435 36.8239C71.6983 36.8239 70.6601 36.3048 70.0278 35.2666H69.9821V41.0464H67.5444V29.2159C67.5444 28.0428 67.5136 26.8389 67.4541 25.604H69.5979L69.734 27.3431H69.7797C70.5926 26.0328 71.8263 25.3788 73.4819 25.3788C74.7762 25.3788 75.8567 25.8899 76.7211 26.9132C77.5878 27.9376 78.02 29.2845 78.02 30.955ZM75.5366 31.0442C75.5366 29.9763 75.2965 29.0959 74.814 28.403C74.2869 27.6804 73.5791 27.3191 72.6919 27.3191C72.0905 27.3191 71.5439 27.5203 71.0557 27.9171C70.5663 28.3172 70.2462 28.8398 70.0964 29.4869C70.021 29.7888 69.9832 30.0357 69.9832 30.2301V32.0595C69.9832 32.8576 70.2279 33.531 70.7173 34.081C71.2066 34.6309 71.8423 34.9053 72.6244 34.9053C73.5425 34.9053 74.2571 34.5509 74.7682 33.8443C75.2804 33.1365 75.5366 32.2035 75.5366 31.0442Z" fill="white"/>
<path d="M90.6395 30.955C90.6395 32.821 90.1353 34.2959 89.1257 35.3787C88.2236 36.3425 87.102 36.8239 85.7631 36.8239C84.3179 36.8239 83.2797 36.3048 82.6485 35.2666H82.6028V41.0464H80.1652V29.2159C80.1652 28.0428 80.1343 26.8389 80.0748 25.604H82.2186L82.3547 27.3431H82.4004C83.2122 26.0328 84.4459 25.3788 86.1027 25.3788C87.3958 25.3788 88.4763 25.8899 89.343 26.9132C90.2062 27.9376 90.6395 29.2845 90.6395 30.955ZM88.1562 31.0442C88.1562 29.9763 87.9149 29.0959 87.4324 28.403C86.9053 27.6804 86.1999 27.3191 85.3115 27.3191C84.7089 27.3191 84.1635 27.5203 83.6742 27.9171C83.1848 28.3172 82.8658 28.8398 82.716 29.4869C82.6417 29.7888 82.6028 30.0357 82.6028 30.2301V32.0595C82.6028 32.8576 82.8475 33.531 83.3346 34.081C83.8239 34.6298 84.4596 34.9053 85.244 34.9053C86.1621 34.9053 86.8767 34.5509 87.3878 33.8443C87.9 33.1365 88.1562 32.2035 88.1562 31.0442Z" fill="white"/>
<path d="M104.749 32.3088C104.749 33.6031 104.299 34.6561 103.397 35.4691C102.406 36.3575 101.026 36.8011 99.2526 36.8011C97.6153 36.8011 96.3027 36.4855 95.3091 35.8532L95.8739 33.8215C96.9441 34.4686 98.1183 34.7933 99.3978 34.7933C100.316 34.7933 101.03 34.5852 101.544 34.1713C102.055 33.7575 102.31 33.2018 102.31 32.5089C102.31 31.8915 102.1 31.3712 101.678 30.9493C101.258 30.5274 100.557 30.1353 99.5784 29.7728C96.9144 28.7792 95.5835 27.3237 95.5835 25.4097C95.5835 24.1589 96.05 23.1333 96.9841 22.3352C97.9148 21.536 99.1565 21.137 100.709 21.137C102.094 21.137 103.244 21.3782 104.162 21.8596L103.553 23.8467C102.695 23.3803 101.726 23.147 100.641 23.147C99.7831 23.147 99.1131 23.3585 98.6329 23.7793C98.227 24.1555 98.0234 24.6139 98.0234 25.157C98.0234 25.7585 98.2555 26.2558 98.722 26.6469C99.1279 27.0082 99.8654 27.3992 100.936 27.8211C102.245 28.3482 103.206 28.9645 103.825 29.6711C104.441 30.3754 104.749 31.2569 104.749 32.3088Z" fill="white"/>
<path d="M112.808 27.4335H110.121V32.7605C110.121 34.1154 110.595 34.7923 111.544 34.7923C111.979 34.7923 112.341 34.7545 112.626 34.6791L112.694 36.5302C112.214 36.7097 111.581 36.8 110.798 36.8C109.835 36.8 109.083 36.5062 108.54 35.9196C107.999 35.3319 107.727 34.3463 107.727 32.9617V27.4313H106.126V25.6019H107.727V23.593L110.121 22.8704V25.6019H112.808V27.4335Z" fill="white"/>
<path d="M124.931 30.9998C124.931 32.6862 124.449 34.0709 123.486 35.1536C122.477 36.2684 121.137 36.8241 119.466 36.8241C117.856 36.8241 116.575 36.2901 115.619 35.2222C114.663 34.1543 114.185 32.8063 114.185 31.1816C114.185 29.4814 114.677 28.0888 115.663 27.006C116.648 25.9221 117.976 25.3801 119.647 25.3801C121.257 25.3801 122.552 25.9141 123.53 26.9831C124.465 28.0202 124.931 29.359 124.931 30.9998ZM122.402 31.0787C122.402 30.0668 122.186 29.199 121.748 28.4752C121.237 27.5994 120.507 27.1626 119.56 27.1626C118.58 27.1626 117.836 27.6005 117.325 28.4752C116.887 29.2001 116.671 30.0817 116.671 31.1244C116.671 32.1363 116.887 33.0041 117.325 33.7267C117.852 34.6025 118.588 35.0393 119.538 35.0393C120.469 35.0393 121.199 34.5934 121.727 33.7038C122.176 32.9664 122.402 32.0894 122.402 31.0787Z" fill="white"/>
<path d="M132.855 27.7478C132.614 27.7033 132.356 27.6804 132.086 27.6804C131.229 27.6804 130.566 28.004 130.099 28.6522C129.693 29.2239 129.49 29.9465 129.49 30.8189V36.5758H127.053L127.076 29.0593C127.076 27.7947 127.045 26.6433 126.985 25.6052H129.108L129.197 27.7044H129.265C129.522 26.9829 129.928 26.4021 130.483 25.9665C131.027 25.5743 131.613 25.3788 132.245 25.3788C132.471 25.3788 132.674 25.3948 132.855 25.4234V27.7478Z" fill="white"/>
<path d="M143.757 30.5709C143.757 31.0077 143.728 31.3758 143.668 31.6765H136.355C136.383 32.7604 136.736 33.5894 137.416 34.1611C138.032 34.6721 138.829 34.9283 139.808 34.9283C140.89 34.9283 141.878 34.7556 142.767 34.4092L143.148 36.1014C142.11 36.5541 140.885 36.7794 139.47 36.7794C137.769 36.7794 136.433 36.2786 135.462 35.2781C134.492 34.2777 134.006 32.9342 134.006 31.2489C134.006 29.5945 134.458 28.2167 135.362 27.1179C136.309 25.9448 137.588 25.3583 139.198 25.3583C140.779 25.3583 141.977 25.9448 142.789 27.1179C143.433 28.0498 143.757 29.2023 143.757 30.5709ZM141.432 29.9386C141.448 29.216 141.289 28.5917 140.959 28.0646C140.537 27.3866 139.889 27.0482 139.016 27.0482C138.219 27.0482 137.571 27.3786 137.076 28.0418C136.67 28.5689 136.429 29.2011 136.355 29.9375H141.432V29.9386Z" fill="white"/>
<path d="M60.1703 11.9993C60.1703 13.345 59.7667 14.3581 58.9607 15.0384C58.214 15.6661 57.153 15.9805 55.7787 15.9805C55.0972 15.9805 54.5141 15.9508 54.0259 15.8913V8.53831C54.6627 8.43541 55.3488 8.38281 56.0897 8.38281C57.3988 8.38281 58.3855 8.66751 59.051 9.23691C59.7965 9.88062 60.1703 10.801 60.1703 11.9993ZM58.9069 12.0324C58.9069 11.1601 58.676 10.4912 58.214 10.0247C57.7521 9.55934 57.0775 9.32609 56.1891 9.32609C55.8118 9.32609 55.4905 9.35124 55.2241 9.40384V14.9938C55.3716 15.0166 55.6415 15.0269 56.0336 15.0269C56.9506 15.0269 57.6584 14.7719 58.1569 14.262C58.6554 13.7521 58.9069 13.0089 58.9069 12.0324Z" fill="white"/>
<path d="M66.8693 13.1746C66.8693 14.0036 66.6326 14.6827 66.1592 15.2156C65.663 15.7632 65.0056 16.0365 64.1846 16.0365C63.3934 16.0365 62.7634 15.7747 62.2935 15.2487C61.8247 14.7239 61.5903 14.0619 61.5903 13.2638C61.5903 12.4292 61.8316 11.7443 62.3164 11.2126C62.8012 10.681 63.4529 10.4146 64.2738 10.4146C65.065 10.4146 65.7007 10.6764 66.1821 11.2012C66.6394 11.7111 66.8693 12.3697 66.8693 13.1746ZM65.6264 13.2135C65.6264 12.7161 65.5189 12.2897 65.3051 11.9341C65.0536 11.5042 64.6957 11.2892 64.2304 11.2892C63.749 11.2892 63.3831 11.5042 63.1316 11.9341C62.9166 12.2897 62.8103 12.723 62.8103 13.2352C62.8103 13.7326 62.9178 14.1591 63.1316 14.5147C63.3911 14.9446 63.7524 15.1595 64.2189 15.1595C64.6763 15.1595 65.0353 14.9411 65.2937 14.5032C65.5155 14.1408 65.6264 13.7109 65.6264 13.2135Z" fill="white"/>
<path d="M75.8517 10.5242L74.1652 15.914H73.0676L72.369 13.5735C72.1918 12.9893 72.0477 12.4084 71.9356 11.8322H71.9139C71.8099 12.4244 71.6658 13.0041 71.4806 13.5735L70.7385 15.914H69.6283L68.0425 10.5242H69.2739L69.8833 13.0865C70.0308 13.6924 70.152 14.2698 70.2492 14.8164H70.2709C70.3601 14.3659 70.5076 13.7919 70.7157 13.0979L71.4806 10.5253H72.457L73.1899 13.043C73.3671 13.657 73.5112 14.2481 73.6221 14.8175H73.6553C73.7365 14.263 73.8588 13.6719 74.0211 13.043L74.6752 10.5253H75.8517V10.5242Z" fill="white"/>
<path d="M82.0635 15.914H80.8653V12.8269C80.8653 11.8757 80.5039 11.4 79.7791 11.4C79.4235 11.4 79.1365 11.5304 78.9135 11.7922C78.6929 12.054 78.5808 12.3627 78.5808 12.716V15.9129H77.3826V12.0643C77.3826 11.591 77.3677 11.0776 77.3391 10.5219H78.3921L78.4482 11.3646H78.4813C78.6208 11.1027 78.8289 10.8867 79.1022 10.714C79.4269 10.5128 79.7905 10.411 80.1884 10.411C80.6915 10.411 81.1099 10.5734 81.4427 10.8992C81.8566 11.2983 82.0635 11.894 82.0635 12.6852V15.914Z" fill="white"/>
<path d="M85.3676 15.9141H84.1705V8.05115H85.3676V15.9141Z" fill="white"/>
<path d="M92.4225 13.1746C92.4225 14.0036 92.1858 14.6827 91.7125 15.2156C91.2162 15.7632 90.5577 16.0365 89.7379 16.0365C88.9455 16.0365 88.3155 15.7747 87.8467 15.2487C87.3779 14.7239 87.1436 14.0619 87.1436 13.2638C87.1436 12.4292 87.3848 11.7443 87.8696 11.2126C88.3544 10.681 89.0061 10.4146 89.8259 10.4146C90.6182 10.4146 91.2528 10.6764 91.7353 11.2012C92.1927 11.7111 92.4225 12.3697 92.4225 13.1746ZM91.1785 13.2135C91.1785 12.7161 91.071 12.2897 90.8572 11.9341C90.6068 11.5042 90.2478 11.2892 89.7836 11.2892C89.3011 11.2892 88.9352 11.5042 88.6848 11.9341C88.4699 12.2897 88.3635 12.723 88.3635 13.2352C88.3635 13.7326 88.471 14.1591 88.6848 14.5147C88.9444 14.9446 89.3057 15.1595 89.7722 15.1595C90.2295 15.1595 90.5874 14.9411 90.8458 14.5032C91.0687 14.1408 91.1785 13.7109 91.1785 13.2135Z" fill="white"/>
<path d="M98.2215 15.9141H97.1456L97.0564 15.2933H97.0232C96.655 15.7884 96.1302 16.0365 95.4488 16.0365C94.94 16.0365 94.5284 15.873 94.2185 15.5483C93.9373 15.2533 93.7966 14.8863 93.7966 14.4506C93.7966 13.7921 94.071 13.2901 94.6233 12.9425C95.1744 12.595 95.9496 12.4246 96.9478 12.4326V12.332C96.9478 11.6219 96.575 11.2675 95.8284 11.2675C95.2967 11.2675 94.828 11.4013 94.4232 11.6665L94.1797 10.8799C94.6805 10.57 95.299 10.4146 96.0285 10.4146C97.4371 10.4146 98.1437 11.1577 98.1437 12.6441V14.629C98.1437 15.1675 98.17 15.5963 98.2215 15.9141ZM96.9775 14.0619V13.2307C95.6557 13.2078 94.9949 13.5702 94.9949 14.3169C94.9949 14.5981 95.0703 14.8085 95.2247 14.9491C95.3791 15.0898 95.5757 15.1595 95.8101 15.1595C96.0731 15.1595 96.3189 15.0761 96.543 14.9103C96.7682 14.7433 96.9066 14.5318 96.958 14.2723C96.9706 14.214 96.9775 14.1431 96.9775 14.0619Z" fill="white"/>
<path d="M105.03 15.9141H103.967L103.911 15.0486H103.878C103.538 15.7071 102.959 16.0364 102.146 16.0364C101.497 16.0364 100.956 15.7815 100.527 15.2715C100.099 14.7616 99.8849 14.0996 99.8849 13.2866C99.8849 12.4142 100.117 11.7076 100.583 11.168C101.035 10.6649 101.588 10.4133 102.247 10.4133C102.971 10.4133 103.477 10.6569 103.765 11.1451H103.788V8.05115H104.988V14.462C104.988 14.9868 105.001 15.4705 105.03 15.9141ZM103.788 13.6411V12.7424C103.788 12.5869 103.777 12.4611 103.755 12.3651C103.688 12.0769 103.543 11.8346 103.322 11.639C103.099 11.4435 102.83 11.3452 102.52 11.3452C102.073 11.3452 101.723 11.5224 101.466 11.878C101.211 12.2336 101.082 12.6875 101.082 13.242C101.082 13.7748 101.204 14.207 101.45 14.5398C101.71 14.8942 102.06 15.0714 102.497 15.0714C102.891 15.0714 103.205 14.9239 103.444 14.6278C103.675 14.3545 103.788 14.0252 103.788 13.6411Z" fill="white"/>
<path d="M115.278 13.1746C115.278 14.0036 115.042 14.6827 114.568 15.2156C114.072 15.7632 113.416 16.0365 112.594 16.0365C111.804 16.0365 111.174 15.7747 110.703 15.2487C110.234 14.7239 109.999 14.0619 109.999 13.2638C109.999 12.4292 110.241 11.7443 110.725 11.2126C111.21 10.681 111.862 10.4146 112.684 10.4146C113.474 10.4146 114.111 10.6764 114.591 11.2012C115.049 11.7111 115.278 12.3697 115.278 13.1746ZM114.037 13.2135C114.037 12.7161 113.929 12.2897 113.715 11.9341C113.463 11.5042 113.106 11.2892 112.639 11.2892C112.159 11.2892 111.793 11.5042 111.541 11.9341C111.326 12.2897 111.219 12.723 111.219 13.2352C111.219 13.7326 111.327 14.1591 111.541 14.5147C111.8 14.9446 112.162 15.1595 112.628 15.1595C113.085 15.1595 113.446 14.9411 113.704 14.5032C113.925 14.1408 114.037 13.7109 114.037 13.2135Z" fill="white"/>
<path d="M121.721 15.914H120.524V12.8269C120.524 11.8757 120.163 11.4 119.436 11.4C119.081 11.4 118.794 11.5304 118.572 11.7922C118.35 12.054 118.239 12.3627 118.239 12.716V15.9129H117.04V12.0643C117.04 11.591 117.026 11.0776 116.998 10.5219H118.05L118.106 11.3646H118.139C118.279 11.1027 118.487 10.8867 118.76 10.714C119.085 10.5128 119.448 10.411 119.847 10.411C120.349 10.411 120.767 10.5734 121.1 10.8992C121.515 11.2983 121.721 11.894 121.721 12.6852V15.914Z" fill="white"/>
<path d="M129.785 11.4217H128.466V14.0401C128.466 14.7055 128.7 15.0382 129.164 15.0382C129.379 15.0382 129.558 15.0199 129.698 14.9822L129.729 15.8912C129.492 15.9804 129.181 16.0249 128.798 16.0249C128.325 16.0249 127.957 15.8809 127.69 15.5927C127.423 15.3046 127.29 14.8198 127.29 14.1395V11.4217H126.502V10.5242H127.29V9.53633L128.464 9.18188V10.5231H129.784V11.4217H129.785Z" fill="white"/>
<path d="M136.129 15.9141H134.929V12.8499C134.929 11.8837 134.568 11.4001 133.844 11.4001C133.289 11.4001 132.909 11.6802 132.701 12.2404C132.666 12.3582 132.645 12.5023 132.645 12.6715V15.9129H131.448V8.05115H132.645V11.2995H132.668C133.045 10.7083 133.586 10.4133 134.287 10.4133C134.783 10.4133 135.194 10.5757 135.519 10.9016C135.925 11.3075 136.129 11.9112 136.129 12.7092V15.9141Z" fill="white"/>
<path d="M142.672 12.9642C142.672 13.1791 142.656 13.3598 142.628 13.5073H139.034C139.05 14.0401 139.222 14.446 139.554 14.7272C139.859 14.9788 140.251 15.1046 140.731 15.1046C141.263 15.1046 141.747 15.0199 142.184 14.8496L142.372 15.682C141.861 15.9038 141.259 16.0147 140.563 16.0147C139.728 16.0147 139.071 15.7689 138.595 15.2772C138.117 14.7856 137.88 14.1258 137.88 13.298C137.88 12.4851 138.101 11.8082 138.546 11.2686C139.01 10.6923 139.638 10.4042 140.43 10.4042C141.205 10.4042 141.794 10.6923 142.192 11.2686C142.513 11.7259 142.672 12.2919 142.672 12.9642ZM141.529 12.6543C141.538 12.2987 141.459 11.9923 141.297 11.7339C141.089 11.4012 140.772 11.2343 140.343 11.2343C139.952 11.2343 139.633 11.3966 139.39 11.7225C139.191 11.982 139.073 12.2919 139.034 12.6543H141.529Z" fill="white"/>
</g>
<defs>
<clipPath id="clip0_140_4461">
<rect width="162" height="48" fill="white"/>
</clipPath>
</defs>
</svg>
