<svg width="162" height="48" viewBox="0 0 162 48" fill="none" xmlns="http://www.w3.org/2000/svg">
<g clip-path="url(#clip0_140_4460)">
<path d="M156 0.00012207H6C2.68629 0.00012207 0 2.68641 0 6.00012V42.0001C0 45.3138 2.68629 48.0001 6 48.0001H156C159.314 48.0001 162 45.3138 162 42.0001V6.00012C162 2.68641 159.314 0.00012207 156 0.00012207Z" fill="black"/>
<path d="M156 0.960122C157.337 0.960122 158.619 1.49112 159.564 2.4363C160.509 3.38149 161.04 4.66343 161.04 6.00012V42.0001C161.04 43.3368 160.509 44.6188 159.564 45.5639C158.619 46.5091 157.337 47.0401 156 47.0401H6C4.66331 47.0401 3.38137 46.5091 2.43618 45.5639C1.491 44.6188 0.96 43.3368 0.96 42.0001V6.00012C0.96 4.66343 1.491 3.38149 2.43618 2.4363C3.38137 1.49112 4.66331 0.960122 6 0.960122H156ZM156 0.00012207H6C4.4087 0.00012207 2.88258 0.632263 1.75736 1.75748C0.632141 2.8827 0 4.40882 0 6.00012V42.0001C0 43.5914 0.632141 45.1175 1.75736 46.2428C2.88258 47.368 4.4087 48.0001 6 48.0001H156C157.591 48.0001 159.117 47.368 160.243 46.2428C161.368 45.1175 162 43.5914 162 42.0001V6.00012C162 4.40882 161.368 2.8827 160.243 1.75748C159.117 0.632263 157.591 0.00012207 156 0.00012207Z" fill="#A6A6A6"/>
<path d="M81.7681 26.1C80.7604 26.1048 79.7768 26.4079 78.9412 26.9712C78.1057 27.5345 77.4558 28.3326 77.0734 29.2649C76.6911 30.1972 76.5935 31.2219 76.793 32.2096C76.9925 33.1974 77.4801 34.1038 78.1943 34.8147C78.9085 35.5255 79.8173 36.0089 80.8059 36.2037C81.7945 36.3986 82.8188 36.2962 83.7493 35.9095C84.6798 35.5228 85.4749 34.8691 86.0342 34.0309C86.5935 33.1928 86.8921 32.2077 86.8921 31.2C86.9019 30.5256 86.7758 29.856 86.5215 29.2313C86.2671 28.6065 85.8897 28.0393 85.4116 27.5635C84.9335 27.0876 84.3645 26.7128 83.7386 26.4614C83.1126 26.21 82.4425 26.0871 81.7681 26.1ZM81.7681 34.296C81.1484 34.3394 80.53 34.1953 79.9932 33.8825C79.4565 33.5697 79.0263 33.1027 78.7585 32.5422C78.4907 31.9816 78.3977 31.3535 78.4917 30.7394C78.5856 30.1253 78.8621 29.5537 79.2852 29.0989C79.7083 28.644 80.2585 28.327 80.8642 28.189C81.4699 28.051 82.1031 28.0983 82.6815 28.3249C83.2599 28.5516 83.7568 28.9469 84.1075 29.4597C84.4582 29.9724 84.6466 30.5788 84.6481 31.2C84.6674 31.5937 84.6077 31.9872 84.4725 32.3573C84.3374 32.7275 84.1295 33.0669 83.861 33.3555C83.5926 33.644 83.2691 33.8759 82.9097 34.0374C82.5502 34.199 82.1621 34.2869 81.7681 34.296ZM70.5961 26.1C69.5879 26.1024 68.603 26.4035 67.7659 26.9654C66.9288 27.5272 66.277 28.3245 65.8929 29.2567C65.5087 30.1888 65.4094 31.2138 65.6075 32.2023C65.8057 33.1909 66.2923 34.0985 67.0061 34.8105C67.7198 35.5226 68.6285 36.0071 69.6175 36.2029C70.6065 36.3987 71.6313 36.297 72.5625 35.9107C73.4937 35.5243 74.2895 34.8706 74.8494 34.0322C75.4093 33.1938 75.7081 32.2082 75.7081 31.2C75.7178 30.5256 75.5918 29.856 75.3375 29.2313C75.0831 28.6065 74.7057 28.0393 74.2276 27.5635C73.7495 27.0876 73.1805 26.7128 72.5546 26.4614C71.9286 26.21 71.2585 26.0871 70.5841 26.1H70.5961ZM70.5961 34.296C69.9761 34.3418 69.3566 34.1999 68.8184 33.8887C68.2802 33.5775 67.8482 33.1115 67.5785 32.5514C67.3088 31.9912 67.2141 31.3628 67.3065 30.748C67.399 30.1333 67.6744 29.5606 68.0968 29.1045C68.5193 28.6484 69.0693 28.3301 69.6753 28.191C70.2812 28.0518 70.915 28.0984 71.4941 28.3245C72.0732 28.5506 72.5708 28.9458 72.9222 29.4587C73.2736 29.9716 73.4624 30.5784 73.4641 31.2C73.4834 31.5937 73.4237 31.9872 73.2885 32.3573C73.1534 32.7275 72.9455 33.0669 72.677 33.3555C72.4086 33.644 72.0851 33.8759 71.7257 34.0374C71.3662 34.199 70.9781 34.2869 70.5841 34.296H70.5961ZM57.2881 27.672V29.832H62.4721C62.3908 30.8494 61.9679 31.8094 61.2721 32.556C60.7534 33.0843 60.1299 33.4982 59.4417 33.771C58.7535 34.0438 58.0158 34.1695 57.2761 34.14C55.7484 34.14 54.2833 33.5332 53.2031 32.453C52.1229 31.3728 51.5161 29.9077 51.5161 28.38C51.5161 26.8524 52.1229 25.3873 53.2031 24.3071C54.2833 23.2269 55.7484 22.62 57.2761 22.62C58.7374 22.5962 60.1486 23.1529 61.2001 24.168L62.7241 22.644C62.0142 21.9253 61.1674 21.3563 60.2336 20.9708C59.2999 20.5854 58.2982 20.3913 57.2881 20.4C56.2213 20.3585 55.1571 20.5328 54.1592 20.9124C53.1614 21.292 52.2504 21.8692 51.481 22.6093C50.7115 23.3493 50.0994 24.2372 49.6813 25.2195C49.2631 26.2018 49.0476 27.2584 49.0476 28.326C49.0476 29.3937 49.2631 30.4503 49.6813 31.4326C50.0994 32.4149 50.7115 33.3027 51.481 34.0428C52.2504 34.7829 53.1614 35.3601 54.1592 35.7397C55.1571 36.1193 56.2213 36.2936 57.2881 36.252C58.3152 36.2985 59.3404 36.1243 60.2946 35.7414C61.2488 35.3585 62.11 34.7756 62.8201 34.032C64.0773 32.6508 64.7485 30.835 64.6921 28.968C64.6959 28.5132 64.6558 28.0591 64.5721 27.612L57.2881 27.672ZM111.66 29.352C111.347 28.4313 110.762 27.6274 109.982 27.0467C109.202 26.4659 108.264 26.1358 107.292 26.1C106.636 26.0988 105.986 26.2321 105.383 26.4919C104.78 26.7516 104.237 27.1323 103.787 27.6103C103.337 28.0883 102.99 28.6535 102.768 29.2709C102.545 29.8883 102.451 30.5449 102.492 31.2C102.477 31.8707 102.598 32.5375 102.847 33.1605C103.096 33.7835 103.468 34.3499 103.941 34.8259C104.413 35.302 104.977 35.6779 105.598 35.9311C106.219 36.1844 106.885 36.3099 107.556 36.3C108.395 36.3046 109.223 36.1009 109.964 35.7071C110.706 35.3134 111.338 34.742 111.804 34.044L110.064 32.844C109.804 33.277 109.437 33.6351 108.997 33.8833C108.557 34.1315 108.061 34.2613 107.556 34.26C107.036 34.2799 106.523 34.1428 106.082 33.8667C105.641 33.5907 105.293 33.1883 105.084 32.712L111.912 29.892L111.66 29.352ZM104.7 31.056C104.676 30.6849 104.726 30.3126 104.847 29.961C104.968 29.6094 105.159 29.2855 105.407 29.0084C105.655 28.7312 105.956 28.5064 106.292 28.3469C106.628 28.1875 106.992 28.0968 107.364 28.08C107.751 28.0545 108.137 28.1433 108.474 28.3353C108.811 28.5273 109.085 28.8141 109.26 29.16L104.7 31.056ZM99.1561 36H101.4V21H99.1561V36ZM95.4841 27.24H95.4001C95.0619 26.8619 94.6476 26.5595 94.1843 26.3527C93.7211 26.1459 93.2194 26.0394 92.7121 26.04C91.4007 26.1036 90.164 26.6694 89.2584 27.6199C88.3528 28.5705 87.8477 29.8331 87.8477 31.146C87.8477 32.459 88.3528 33.7216 89.2584 34.6721C90.164 35.6227 91.4007 36.1885 92.7121 36.252C93.2206 36.2606 93.7248 36.1576 94.1892 35.9503C94.6536 35.7429 95.0669 35.4363 95.4001 35.052H95.4721V35.784C95.4721 37.74 94.4281 38.784 92.7481 38.784C92.1885 38.7709 91.6455 38.5916 91.1882 38.269C90.7309 37.9463 90.38 37.4948 90.1801 36.972L88.2241 37.788C88.5923 38.6837 89.2196 39.4489 90.0257 39.9855C90.8317 40.5222 91.7797 40.8058 92.7481 40.8C95.3761 40.8 97.5481 39.252 97.5481 35.484V26.4H95.4841V27.24ZM92.9161 34.296C92.142 34.2278 91.4216 33.8721 90.8968 33.2991C90.372 32.726 90.0809 31.9771 90.0809 31.2C90.0809 30.423 90.372 29.6741 90.8968 29.101C91.4216 28.528 92.142 28.1723 92.9161 28.104C93.2999 28.1237 93.6758 28.22 94.0218 28.3873C94.3678 28.5545 94.6768 28.7893 94.9307 29.0778C95.1845 29.3664 95.3781 29.7028 95.4999 30.0672C95.6217 30.4317 95.6694 30.8169 95.6401 31.2C95.6728 31.5849 95.6272 31.9723 95.5059 32.339C95.3846 32.7057 95.1902 33.044 94.9344 33.3334C94.6787 33.6228 94.3669 33.8573 94.0179 34.0228C93.6689 34.1882 93.29 34.2812 92.9041 34.296H92.9161ZM122.172 21H116.808V36H119.052V30.312H122.184C122.824 30.358 123.466 30.2717 124.07 30.0585C124.675 29.8453 125.23 29.5099 125.699 29.073C126.168 28.6362 126.543 28.1073 126.799 27.5194C127.054 26.9316 127.187 26.2972 127.187 25.656C127.187 25.0149 127.054 24.3805 126.799 23.7926C126.543 23.2048 126.168 22.6759 125.699 22.2391C125.23 21.8022 124.675 21.4667 124.07 21.2536C123.466 21.0404 122.824 20.9541 122.184 21H122.172ZM122.172 28.2H119.04V23.088H122.22C122.903 23.088 123.557 23.3592 124.04 23.842C124.523 24.3247 124.794 24.9794 124.794 25.662C124.794 26.3447 124.523 26.9994 124.04 27.4821C123.557 27.9649 122.903 28.236 122.22 28.236L122.172 28.2ZM136.008 26.04C135.191 25.9912 134.378 26.1821 133.668 26.5893C132.958 26.9965 132.382 27.6022 132.012 28.332L134.004 29.16C134.2 28.7981 134.498 28.501 134.86 28.305C135.222 28.109 135.634 28.0225 136.044 28.056C136.329 28.0228 136.618 28.0466 136.893 28.126C137.169 28.2055 137.426 28.3391 137.649 28.5189C137.873 28.6987 138.058 28.9213 138.194 29.1735C138.331 29.4258 138.416 29.7027 138.444 29.988V30.144C137.723 29.7624 136.92 29.5646 136.104 29.568C133.956 29.568 131.784 30.768 131.784 32.94C131.805 33.4032 131.919 33.8573 132.119 34.2757C132.319 34.6941 132.6 35.0681 132.947 35.3758C133.294 35.6835 133.699 35.9185 134.138 36.0669C134.577 36.2153 135.042 36.2742 135.504 36.24C136.069 36.2806 136.635 36.1683 137.142 35.915C137.648 35.6616 138.077 35.2765 138.384 34.8H138.456V36H140.616V30.228C140.616 27.6 138.624 26.076 136.068 26.076L136.008 26.04ZM135.732 34.26C135 34.26 133.98 33.888 133.98 32.988C133.98 31.788 135.252 31.392 136.38 31.392C137.093 31.3745 137.797 31.5485 138.42 31.896C138.345 32.5457 138.038 33.1464 137.555 33.5874C137.072 34.0284 136.446 34.2801 135.792 34.296L135.732 34.26ZM148.488 26.4L145.92 32.904H145.848L143.184 26.4H140.784L144.78 35.496L142.5 40.548H144.84L150.984 26.4H148.488ZM128.316 36H130.56V21H128.316V36Z" fill="white"/>
<path d="M56.8291 12.3631C56.8495 12.8032 56.7803 13.2429 56.6255 13.6555C56.4708 14.0681 56.2339 14.4449 55.9291 14.7631C55.5888 15.1166 55.1778 15.3944 54.7229 15.5784C54.2681 15.7625 53.7795 15.8486 53.2891 15.8311C52.5451 15.8253 51.8193 15.6 51.2028 15.1835C50.5862 14.767 50.1063 14.1778 49.8231 13.4898C49.54 12.8017 49.4662 12.0454 49.611 11.3156C49.7558 10.5858 50.1127 9.91493 50.6371 9.38709C50.9818 9.03523 51.395 8.75784 51.8511 8.57207C52.3073 8.38631 52.7967 8.29612 53.2891 8.30709C53.7964 8.3054 54.2987 8.4075 54.7651 8.60709C55.1993 8.78224 55.5859 9.05776 55.8931 9.41109L55.2571 10.0471C55.0176 9.7622 54.7151 9.53692 54.3736 9.38906C54.032 9.24119 53.6608 9.17479 53.2891 9.19509C52.9143 9.19325 52.5429 9.26713 52.1974 9.41228C51.8518 9.55743 51.5391 9.77088 51.278 10.0398C51.0169 10.3088 50.8128 10.6277 50.6779 10.9774C50.543 11.3271 50.4802 11.7005 50.4931 12.0751C50.4853 12.6345 50.6432 13.1836 50.9471 13.6533C51.251 14.123 51.6872 14.4921 52.2006 14.7142C52.7141 14.9363 53.2818 15.0013 53.8322 14.9011C54.3825 14.8009 54.8909 14.5399 55.2931 14.1511C55.6624 13.7509 55.8753 13.2313 55.8931 12.6871H53.2891V11.8231H56.7811C56.8131 12.0013 56.8292 12.182 56.8291 12.3631ZM62.3251 9.36309H59.0851V11.6431H62.0371V12.5071H59.0851V14.7871H62.3251V15.6751H58.1251V8.47509H62.3251V9.36309ZM66.2611 15.6751H65.3371V9.36309H63.3211V8.47509H68.3251V9.36309H66.2611V15.6751ZM71.8531 15.6751V8.47509H72.7771V15.6751H71.8531ZM76.8811 15.6751H75.9571V9.36309H73.9411V8.47509H78.8851V9.36309H76.8811V15.6751ZM88.2571 14.7391C87.5556 15.4367 86.6065 15.8283 85.6171 15.8283C84.6278 15.8283 83.6786 15.4367 82.9771 14.7391C82.2952 14.0173 81.9154 13.062 81.9154 12.0691C81.9154 11.0762 82.2952 10.1209 82.9771 9.39909C83.3229 9.05079 83.7342 8.77434 84.1873 8.5857C84.6404 8.39705 85.1263 8.29993 85.6171 8.29993C86.1079 8.29993 86.5939 8.39705 87.047 8.5857C87.5 8.77434 87.9113 9.05079 88.2571 9.39909C88.9417 10.1195 89.3234 11.0753 89.3234 12.0691C89.3234 13.0629 88.9417 14.0187 88.2571 14.7391ZM83.6611 14.1391C84.1806 14.6564 84.8839 14.9469 85.6171 14.9469C86.3503 14.9469 87.0536 14.6564 87.5731 14.1391C88.0858 13.5739 88.3698 12.8382 88.3698 12.0751C88.3698 11.312 88.0858 10.5763 87.5731 10.0111C87.0536 9.49375 86.3503 9.20328 85.6171 9.20328C84.8839 9.20328 84.1806 9.49375 83.6611 10.0111C83.1484 10.5763 82.8644 11.312 82.8644 12.0751C82.8644 12.8382 83.1484 13.5739 83.6611 14.1391ZM90.6211 15.6751V8.47509H91.7491L95.2531 14.0791V8.47509H96.1771V15.6751H95.2171L91.5571 9.80709V15.6751H90.6211Z" fill="white"/>
<path fill-rule="evenodd" clip-rule="evenodd" d="M85.6171 8.41993C85.1422 8.41993 84.6719 8.51392 84.2334 8.69648C83.7954 8.87885 83.3977 9.14601 83.0633 9.48258C82.4031 10.1819 82.0354 11.1073 82.0354 12.0691C82.0354 13.0308 82.403 13.956 83.0631 14.6553C83.742 15.3298 84.6601 15.7083 85.6171 15.7083C86.5742 15.7083 87.4924 15.3297 88.1713 14.6552C88.8339 13.9572 89.2034 13.0315 89.2034 12.0691C89.2034 11.1065 88.8339 10.1807 88.1711 9.48274C87.8366 9.14609 87.4389 8.87888 87.0008 8.69648C86.5624 8.51392 86.0921 8.41993 85.6171 8.41993ZM84.1412 8.47492C84.6089 8.28018 85.1105 8.17993 85.6171 8.17993C86.1238 8.17993 86.6254 8.28018 87.0931 8.47492C87.5608 8.66965 87.9853 8.95501 88.3423 9.31455L88.3441 9.31641C89.0499 10.0591 89.4434 11.0445 89.4434 12.0691C89.4434 13.0936 89.0499 14.0791 88.3441 14.8218L88.3418 14.8242C87.6178 15.5442 86.6382 15.9483 85.6171 15.9483C84.5961 15.9483 83.6165 15.5442 82.8925 14.8242L82.8898 14.8215C82.1869 14.0775 81.7954 13.0927 81.7954 12.0691C81.7954 11.0455 82.187 10.0607 82.8899 9.31669L82.8919 9.31452C83.2489 8.95498 83.6734 8.66965 84.1412 8.47492ZM53.2864 8.42706C52.8104 8.41646 52.3373 8.50364 51.8964 8.68321C51.4554 8.86278 51.056 9.13093 50.7228 9.47106L50.7222 9.47167C50.2145 9.98275 49.8689 10.6323 49.7287 11.339C49.5885 12.0456 49.6599 12.7779 49.9341 13.4441C50.2083 14.1103 50.673 14.6808 51.27 15.0841C51.8669 15.4873 52.5697 15.7055 53.2901 15.7111L53.2934 15.7111C53.7669 15.728 54.2387 15.6449 54.6779 15.4672C55.1171 15.2895 55.514 15.0213 55.8425 14.68C56.136 14.3735 56.3642 14.0107 56.5132 13.6134C56.6622 13.216 56.7289 12.7926 56.7092 12.3686L56.8291 12.3631L56.7091 12.363C56.7092 12.2225 56.6991 12.0821 56.679 11.9431H53.4091V12.5671H56.0171L56.0131 12.691C55.9943 13.264 55.7701 13.8111 55.3813 14.2325L55.3767 14.2375C54.9574 14.6428 54.4274 14.9147 53.8537 15.0191C53.28 15.1236 52.6882 15.0558 52.153 14.8243C51.6178 14.5929 51.1631 14.2081 50.8464 13.7185C50.5301 13.2297 50.3655 12.6584 50.3731 12.0763C50.36 11.6865 50.4256 11.2981 50.5659 10.9342C50.7066 10.5694 50.9195 10.2368 51.1919 9.95623C51.4642 9.6757 51.7904 9.45305 52.1509 9.30164C52.5103 9.15069 52.8964 9.07365 53.2861 9.07508C53.6752 9.05438 54.0637 9.12415 54.4212 9.27893C54.7399 9.41688 55.0261 9.61898 55.2624 9.87213L55.7276 9.40693C55.4459 9.10756 55.1023 8.87248 54.7202 8.71838L54.7179 8.71744C54.2665 8.52428 53.7805 8.42546 53.2895 8.42709L53.2864 8.42706ZM56.9491 12.3603C56.9698 12.8158 56.898 13.2707 56.7379 13.6976C56.5775 14.1254 56.3318 14.5162 56.0158 14.8461C55.6638 15.2118 55.2385 15.4993 54.7679 15.6897C54.2979 15.8798 53.7932 15.9689 53.2865 15.9511C52.5195 15.9447 51.7713 15.7123 51.1356 15.2829C50.4995 14.8532 50.0043 14.2454 49.7122 13.5355C49.42 12.8256 49.3439 12.0452 49.4933 11.2922C49.6426 10.5394 50.0108 9.84736 50.5517 9.30282C50.9078 8.93937 51.3346 8.65284 51.8059 8.46093C52.2768 8.26917 52.7819 8.17597 53.2903 8.18709C53.813 8.18556 54.3305 8.29077 54.8112 8.49628C55.2625 8.67854 55.6643 8.96504 55.9837 9.33236L56.0571 9.41681L55.2495 10.2245L55.1653 10.1243C54.9377 9.85367 54.6504 9.63965 54.3259 9.49918C54.0014 9.3587 53.6487 9.29562 53.2957 9.31491L53.2885 9.3153C52.9299 9.31354 52.5745 9.38402 52.2438 9.52292C51.9131 9.66181 51.6139 9.86606 51.3641 10.1234C51.1142 10.3808 50.9189 10.6859 50.7899 11.0206C50.6608 11.3552 50.6007 11.7125 50.613 12.071L50.6132 12.0768C50.6057 12.6124 50.7569 13.1383 51.0479 13.5881C51.3389 14.0379 51.7566 14.3914 52.2483 14.6041C52.74 14.8167 53.2836 14.879 53.8107 14.783C54.3366 14.6873 54.8225 14.4382 55.2072 14.0672C55.5274 13.7191 55.723 13.2759 55.7655 12.8071H53.1691V11.7031H56.8815L56.8992 11.8019C56.9323 11.9862 56.949 12.1731 56.9491 12.3603ZM58.0051 8.35509H62.4451V9.48309H59.2051V11.5231H62.1571V12.6271H59.2051V14.6671H62.4451V15.7951H58.0051V8.35509ZM58.2451 8.59509V15.5551H62.2051V14.9071H58.9651V12.3871H61.9171V11.7631H58.9651V9.24309H62.2051V8.59509H58.2451ZM63.2011 8.35509H68.4451V9.48309H66.3811V15.7951H65.2171V9.48309H63.2011V8.35509ZM63.4411 8.59509V9.24309H65.4571V15.5551H66.1411V9.24309H68.2051V8.59509H63.4411ZM71.7331 8.35509H72.8971V15.7951H71.7331V8.35509ZM71.9731 8.59509V15.5551H72.6571V8.59509H71.9731ZM73.8211 8.35509H79.0051V9.48309H77.0011V15.7951H75.8371V9.48309H73.8211V8.35509ZM74.0611 8.59509V9.24309H76.0771V15.5551H76.7611V9.24309H78.7651V8.59509H74.0611ZM90.5011 8.35509H91.8156L95.1331 13.6608V8.35509H96.2971V15.7951H95.1505L91.6771 10.2262V15.7951H90.5011V8.35509ZM90.7411 8.59509V15.5551H91.4371V9.38795L95.2837 15.5551H96.0571V8.59509H95.3731V14.4974L91.6826 8.59509H90.7411ZM83.5764 9.92606C84.1184 9.38632 84.8522 9.08328 85.6171 9.08328C86.382 9.08328 87.1158 9.38632 87.6578 9.92606L87.6621 9.93036C88.1948 10.5176 88.4898 11.2822 88.4898 12.0751C88.4898 12.868 88.1947 13.6325 87.662 14.2197L87.6579 14.2242C87.1159 14.764 86.382 15.0669 85.6171 15.0669C84.8522 15.0669 84.1184 14.7639 83.5764 14.2241L83.6611 14.1391L83.5722 14.2197C83.0395 13.6325 82.7444 12.868 82.7444 12.0751C82.7444 11.2822 83.0395 10.5177 83.5722 9.93047L83.5764 9.92606ZM83.748 14.0562C84.2448 14.5498 84.9167 14.8269 85.6171 14.8269C86.3175 14.8269 86.9895 14.5498 87.4863 14.0562C87.9776 13.5134 88.2498 12.8073 88.2498 12.0751C88.2498 11.3428 87.9776 10.6368 87.4863 10.094C86.9895 9.60036 86.3175 9.32328 85.6171 9.32328C84.9167 9.32328 84.2448 9.60036 83.748 10.094C83.2566 10.6368 82.9844 11.3428 82.9844 12.0751C82.9844 12.8073 83.2566 13.5134 83.748 14.0562Z" fill="white"/>
<path d="M12.528 9.04811C12.1369 9.51744 11.9394 10.1183 11.976 10.7281V37.2721C11.9394 37.882 12.1369 38.4828 12.528 38.9521L12.612 39.0361L27.48 24.1801V23.8321L12.612 8.96411L12.528 9.04811Z" fill="url(#paint0_linear_140_4460)"/>
<path d="M32.3999 29.1361L27.4799 24.1801V23.8321L32.3999 18.8641L32.5079 18.9241L38.3999 22.2721C40.0799 23.2201 40.0799 24.7801 38.3999 25.7401L32.5319 29.0761L32.3999 29.1361Z" fill="url(#paint1_linear_140_4460)"/>
<path d="M32.5438 29.0641L27.4798 24.0001L12.5278 38.9521C12.8703 39.2531 13.3071 39.4251 13.7628 39.4382C14.2186 39.4514 14.6646 39.3049 15.0238 39.0241L32.5558 29.0641" fill="url(#paint2_linear_140_4460)"/>
<path d="M32.5439 18.9361L15.0119 8.97608C14.6527 8.6953 14.2066 8.54882 13.7509 8.56197C13.2951 8.57512 12.8583 8.74706 12.5159 9.04808L27.4799 24.0001L32.5439 18.9361Z" fill="url(#paint3_linear_140_4460)"/>
<path opacity="0.2" d="M32.3998 28.9561L15.0118 38.8561C14.6654 39.1151 14.2444 39.2551 13.8118 39.2551C13.3793 39.2551 12.9583 39.1151 12.6118 38.8561L12.5278 38.9401L12.6118 39.0241C12.9575 39.2849 13.3788 39.4261 13.8118 39.4261C14.2449 39.4261 14.6662 39.2849 15.0118 39.0241L32.5438 29.0641L32.3998 28.9561Z" fill="black"/>
<path opacity="0.12" d="M12.528 38.7841C12.1369 38.3148 11.9394 37.714 11.976 37.1041V37.2841C11.9394 37.894 12.1369 38.4948 12.528 38.9641L12.612 38.8801L12.528 38.7841ZM38.4 25.5601L32.4 28.9561L32.508 29.0641L38.4 25.7281C38.7343 25.5711 39.0213 25.3286 39.232 25.0252C39.4427 24.7218 39.5696 24.3682 39.6 24.0001C39.5325 24.3346 39.3892 24.6491 39.1812 24.9195C38.9732 25.19 38.7059 25.4091 38.4 25.5601Z" fill="black"/>
<path opacity="0.25" d="M15.0119 9.14368L38.3999 22.4397C38.7058 22.5907 38.9731 22.8098 39.1811 23.0803C39.3891 23.3507 39.5324 23.6652 39.5999 23.9997C39.5695 23.6316 39.4425 23.278 39.2319 22.9746C39.0212 22.6712 38.7342 22.4287 38.3999 22.2717L15.0119 8.97568C13.3319 8.02768 11.9639 8.81968 11.9639 10.7397V10.9197C11.9999 8.98768 13.3439 8.19568 15.0119 9.14368Z" fill="white"/>
</g>
<defs>
<linearGradient id="paint0_linear_140_4460" x1="26.16" y1="10.4521" x2="6.02398" y2="30.5881" gradientUnits="userSpaceOnUse">
<stop stop-color="#00A0FF"/>
<stop offset="0.01" stop-color="#00A1FF"/>
<stop offset="0.26" stop-color="#00BEFF"/>
<stop offset="0.51" stop-color="#00D2FF"/>
<stop offset="0.76" stop-color="#00DFFF"/>
<stop offset="1" stop-color="#00E3FF"/>
</linearGradient>
<linearGradient id="paint1_linear_140_4460" x1="40.5959" y1="24.0001" x2="11.5679" y2="24.0001" gradientUnits="userSpaceOnUse">
<stop stop-color="#FFE000"/>
<stop offset="0.41" stop-color="#FFBD00"/>
<stop offset="0.78" stop-color="#FFA500"/>
<stop offset="1" stop-color="#FF9C00"/>
</linearGradient>
<linearGradient id="paint2_linear_140_4460" x1="29.7958" y1="26.7601" x2="2.48383" y2="54.0601" gradientUnits="userSpaceOnUse">
<stop stop-color="#FF3A44"/>
<stop offset="1" stop-color="#C31162"/>
</linearGradient>
<linearGradient id="paint3_linear_140_4460" x1="8.75987" y1="0.216084" x2="20.9519" y2="12.4081" gradientUnits="userSpaceOnUse">
<stop stop-color="#32A071"/>
<stop offset="0.07" stop-color="#2DA771"/>
<stop offset="0.48" stop-color="#15CF74"/>
<stop offset="0.8" stop-color="#06E775"/>
<stop offset="1" stop-color="#00F076"/>
</linearGradient>
<clipPath id="clip0_140_4460">
<rect width="162" height="48" fill="white"/>
</clipPath>
</defs>
</svg>
