<svg xmlns="http://www.w3.org/2000/svg" width="24" height="24" viewBox="0 0 24 24" fill="none">
  <path d="M23.9524 15.3116C23.1922 17.7939 21.6685 19.9732 19.5983 21.5393C17.7807 22.9076 15.6178 23.7421 13.3524 23.9492C11.087 24.1563 8.80871 23.7277 6.77329 22.7116C4.73786 21.6955 3.02585 20.1321 1.82942 18.1968C0.632997 16.2616 -0.000493328 14.0311 5.75939e-05 11.7557C-0.00812152 9.09987 0.855065 6.5147 2.45719 4.39678C4.02296 2.32611 6.20177 0.802124 8.68359 0.0416969C8.84716 -0.00868051 9.02137 -0.0135045 9.18747 0.0277437C9.35358 0.068992 9.5053 0.154752 9.62632 0.2758C9.74735 0.396848 9.83309 0.548605 9.87433 0.71475C9.91557 0.880894 9.91074 1.05514 9.86038 1.21875C9.31769 3.01425 9.27219 4.92339 9.72872 6.74272C10.1853 8.56205 11.1267 10.2234 12.4528 11.5498C13.7789 12.8761 15.4398 13.8178 17.2588 14.2744C19.0777 14.7311 20.9864 14.6856 22.7815 14.1428C22.9451 14.0924 23.1193 14.0876 23.2854 14.1288C23.4515 14.1701 23.6032 14.2558 23.7243 14.3769C23.8453 14.4979 23.931 14.6497 23.9723 14.8158C24.0135 14.982 24.0087 15.1562 23.9583 15.3198L23.9524 15.3116Z" fill="#0FC36D"/>
</svg>