<svg width="244" height="44" viewBox="0 0 244 44" fill="none" xmlns="http://www.w3.org/2000/svg">
<path d="M57.1364 14.7841V10.7273H76.25V14.7841H69.125V34H64.2614V14.7841H57.1364ZM84.6619 34.3409C82.8968 34.3409 81.3703 33.9659 80.0824 33.2159C78.8021 32.4583 77.8134 31.4053 77.1165 30.0568C76.4195 28.7008 76.071 27.1288 76.071 25.3409C76.071 23.5379 76.4195 21.9621 77.1165 20.6136C77.8134 19.2576 78.8021 18.2045 80.0824 17.4545C81.3703 16.697 82.8968 16.3182 84.6619 16.3182C86.4271 16.3182 87.9498 16.697 89.2301 17.4545C90.518 18.2045 91.5104 19.2576 92.2074 20.6136C92.9044 21.9621 93.2528 23.5379 93.2528 25.3409C93.2528 27.1288 92.9044 28.7008 92.2074 30.0568C91.5104 31.4053 90.518 32.4583 89.2301 33.2159C87.9498 33.9659 86.4271 34.3409 84.6619 34.3409ZM84.6847 30.5909C85.4877 30.5909 86.1581 30.3636 86.696 29.9091C87.2339 29.447 87.6392 28.8182 87.9119 28.0227C88.1922 27.2273 88.3324 26.322 88.3324 25.3068C88.3324 24.2917 88.1922 23.3864 87.9119 22.5909C87.6392 21.7955 87.2339 21.1667 86.696 20.7045C86.1581 20.2424 85.4877 20.0114 84.6847 20.0114C83.8741 20.0114 83.1922 20.2424 82.6392 20.7045C82.0938 21.1667 81.6809 21.7955 81.4006 22.5909C81.1278 23.3864 80.9915 24.2917 80.9915 25.3068C80.9915 26.322 81.1278 27.2273 81.4006 28.0227C81.6809 28.8182 82.0938 29.447 82.6392 29.9091C83.1922 30.3636 83.8741 30.5909 84.6847 30.5909ZM96.3097 34V31.1136L104.855 20.5341V20.4091H96.6051V16.5455H110.685V19.6932L102.662 30.0114V30.1364H110.98V34H96.3097ZM119.659 34.3295C118.545 34.3295 117.553 34.1364 116.682 33.75C115.811 33.3561 115.121 32.7765 114.614 32.0114C114.114 31.2386 113.864 30.2765 113.864 29.125C113.864 28.1553 114.042 27.3409 114.398 26.6818C114.754 26.0227 115.239 25.4924 115.852 25.0909C116.466 24.6894 117.163 24.3864 117.943 24.1818C118.731 23.9773 119.557 23.8333 120.42 23.75C121.436 23.6439 122.254 23.5455 122.875 23.4545C123.496 23.3561 123.947 23.2121 124.227 23.0227C124.508 22.8333 124.648 22.553 124.648 22.1818V22.1136C124.648 21.3939 124.42 20.8371 123.966 20.4432C123.519 20.0492 122.883 19.8523 122.057 19.8523C121.186 19.8523 120.492 20.0455 119.977 20.4318C119.462 20.8106 119.121 21.2879 118.955 21.8636L114.477 21.5C114.705 20.4394 115.152 19.5227 115.818 18.75C116.485 17.9697 117.345 17.3712 118.398 16.9545C119.458 16.5303 120.686 16.3182 122.08 16.3182C123.049 16.3182 123.977 16.4318 124.864 16.6591C125.758 16.8864 126.549 17.2386 127.239 17.7159C127.936 18.1932 128.485 18.8068 128.886 19.5568C129.288 20.2992 129.489 21.1894 129.489 22.2273V34H124.898V31.5795H124.761C124.481 32.125 124.106 32.6061 123.636 33.0227C123.167 33.4318 122.602 33.7538 121.943 33.9886C121.284 34.2159 120.523 34.3295 119.659 34.3295ZM121.045 30.9886C121.758 30.9886 122.386 30.8485 122.932 30.5682C123.477 30.2803 123.905 29.8939 124.216 29.4091C124.527 28.9242 124.682 28.375 124.682 27.7614V25.9091C124.53 26.0076 124.322 26.0985 124.057 26.1818C123.799 26.2576 123.508 26.3295 123.182 26.3977C122.856 26.4583 122.53 26.5152 122.205 26.5682C121.879 26.6136 121.583 26.6553 121.318 26.6932C120.75 26.7765 120.254 26.9091 119.83 27.0909C119.405 27.2727 119.076 27.5189 118.841 27.8295C118.606 28.1326 118.489 28.5114 118.489 28.9659C118.489 29.625 118.727 30.1288 119.205 30.4773C119.689 30.8182 120.303 30.9886 121.045 30.9886ZM140.741 10.7273H146.81L153.219 26.3636H153.491L159.901 10.7273H165.969V34H161.196V18.8523H161.003L154.98 33.8864H151.73L145.707 18.7955H145.514V34H140.741V10.7273ZM174.909 34.3295C173.795 34.3295 172.803 34.1364 171.932 33.75C171.061 33.3561 170.371 32.7765 169.864 32.0114C169.364 31.2386 169.114 30.2765 169.114 29.125C169.114 28.1553 169.292 27.3409 169.648 26.6818C170.004 26.0227 170.489 25.4924 171.102 25.0909C171.716 24.6894 172.413 24.3864 173.193 24.1818C173.981 23.9773 174.807 23.8333 175.67 23.75C176.686 23.6439 177.504 23.5455 178.125 23.4545C178.746 23.3561 179.197 23.2121 179.477 23.0227C179.758 22.8333 179.898 22.553 179.898 22.1818V22.1136C179.898 21.3939 179.67 20.8371 179.216 20.4432C178.769 20.0492 178.133 19.8523 177.307 19.8523C176.436 19.8523 175.742 20.0455 175.227 20.4318C174.712 20.8106 174.371 21.2879 174.205 21.8636L169.727 21.5C169.955 20.4394 170.402 19.5227 171.068 18.75C171.735 17.9697 172.595 17.3712 173.648 16.9545C174.708 16.5303 175.936 16.3182 177.33 16.3182C178.299 16.3182 179.227 16.4318 180.114 16.6591C181.008 16.8864 181.799 17.2386 182.489 17.7159C183.186 18.1932 183.735 18.8068 184.136 19.5568C184.538 20.2992 184.739 21.1894 184.739 22.2273V34H180.148V31.5795H180.011C179.731 32.125 179.356 32.6061 178.886 33.0227C178.417 33.4318 177.852 33.7538 177.193 33.9886C176.534 34.2159 175.773 34.3295 174.909 34.3295ZM176.295 30.9886C177.008 30.9886 177.636 30.8485 178.182 30.5682C178.727 30.2803 179.155 29.8939 179.466 29.4091C179.777 28.9242 179.932 28.375 179.932 27.7614V25.9091C179.78 26.0076 179.572 26.0985 179.307 26.1818C179.049 26.2576 178.758 26.3295 178.432 26.3977C178.106 26.4583 177.78 26.5152 177.455 26.5682C177.129 26.6136 176.833 26.6553 176.568 26.6932C176 26.7765 175.504 26.9091 175.08 27.0909C174.655 27.2727 174.326 27.5189 174.091 27.8295C173.856 28.1326 173.739 28.5114 173.739 28.9659C173.739 29.625 173.977 30.1288 174.455 30.4773C174.939 30.8182 175.553 30.9886 176.295 30.9886ZM192.881 28.9773L192.892 23.1705H193.597L199.188 16.5455H204.744L197.233 25.3182H196.085L192.881 28.9773ZM188.494 34V10.7273H193.335V34H188.494ZM199.403 34L194.267 26.3977L197.494 22.9773L205.074 34H199.403ZM214.287 34.3409C212.522 34.3409 210.995 33.9659 209.707 33.2159C208.427 32.4583 207.438 31.4053 206.741 30.0568C206.045 28.7008 205.696 27.1288 205.696 25.3409C205.696 23.5379 206.045 21.9621 206.741 20.6136C207.438 19.2576 208.427 18.2045 209.707 17.4545C210.995 16.697 212.522 16.3182 214.287 16.3182C216.052 16.3182 217.575 16.697 218.855 17.4545C220.143 18.2045 221.135 19.2576 221.832 20.6136C222.529 21.9621 222.878 23.5379 222.878 25.3409C222.878 27.1288 222.529 28.7008 221.832 30.0568C221.135 31.4053 220.143 32.4583 218.855 33.2159C217.575 33.9659 216.052 34.3409 214.287 34.3409ZM214.31 30.5909C215.113 30.5909 215.783 30.3636 216.321 29.9091C216.859 29.447 217.264 28.8182 217.537 28.0227C217.817 27.2273 217.957 26.322 217.957 25.3068C217.957 24.2917 217.817 23.3864 217.537 22.5909C217.264 21.7955 216.859 21.1667 216.321 20.7045C215.783 20.2424 215.113 20.0114 214.31 20.0114C213.499 20.0114 212.817 20.2424 212.264 20.7045C211.719 21.1667 211.306 21.7955 211.026 22.5909C210.753 23.3864 210.616 24.2917 210.616 25.3068C210.616 26.322 210.753 27.2273 211.026 28.0227C211.306 28.8182 211.719 29.447 212.264 29.9091C212.817 30.3636 213.499 30.5909 214.31 30.5909ZM230.866 23.9091V34H226.026V16.5455H230.639V19.625H230.844C231.23 18.6098 231.878 17.8068 232.787 17.2159C233.696 16.6174 234.798 16.3182 236.094 16.3182C237.306 16.3182 238.363 16.5833 239.264 17.1136C240.166 17.6439 240.866 18.4015 241.366 19.3864C241.866 20.3636 242.116 21.5303 242.116 22.8864V34H237.276V23.75C237.283 22.6818 237.01 21.8485 236.457 21.25C235.904 20.6439 235.143 20.3409 234.173 20.3409C233.522 20.3409 232.946 20.4811 232.446 20.7614C231.954 21.0417 231.567 21.4508 231.287 21.9886C231.014 22.5189 230.874 23.1591 230.866 23.9091Z" fill="#0FC46D"/>
<path d="M25.7765 26.9328C25.7765 26.9328 21.7334 15.6124 36.288 16.4212C36.288 16.4212 37.0968 32.5925 25.7765 26.9328Z" fill="#0FC36D"/>
<path d="M30.078 29.0487C28.6744 29.0487 27.1007 28.6153 25.3681 27.749C25.1582 27.6436 24.9964 27.4608 24.917 27.2399C24.8465 27.042 23.2158 22.3515 25.8073 18.8828C27.6907 16.3613 31.232 15.2256 36.3387 15.5102C36.8044 15.5358 37.1757 15.9091 37.1987 16.3759C37.2169 16.7383 37.5934 25.2918 33.2318 28.1396C32.3045 28.7458 31.2508 29.0487 30.078 29.0487ZM26.532 26.2844C28.9292 27.4086 30.8456 27.5188 32.2345 26.6118C34.8207 24.9226 35.38 19.9083 35.3936 17.2986C31.3923 17.201 28.6682 18.1027 27.2693 19.9747C25.6047 22.2037 26.2516 25.2698 26.532 26.2844Z" fill="black"/>
<path d="M19.798 15.5759C19.798 15.5759 7.40403 20.1318 8.14445 4.13652C8.14445 4.13652 25.8999 3.08438 19.798 15.5759Z" fill="#0FC36D"/>
<path d="M16.1218 17.0917C14.5037 17.0917 12.637 16.745 11.0078 15.5519C8.24457 13.527 6.97469 9.67189 7.23263 4.0942C7.25456 3.62792 7.62425 3.25301 8.09054 3.22533C8.48529 3.20288 17.8288 2.70422 20.9727 7.42348C22.4368 9.62019 22.3167 12.4973 20.6171 15.9764C20.5137 16.1879 20.333 16.3513 20.1122 16.4323C19.9895 16.4777 18.2763 17.0917 16.1218 17.0917ZM9.02885 5.02103C8.95001 9.48861 9.97709 12.5338 12.0861 14.0794C14.6112 15.9294 18.059 15.1431 19.143 14.8271C20.3832 12.1359 20.4881 9.98727 19.4542 8.43542C17.5327 5.55102 11.8976 4.98709 9.02885 5.02103Z" fill="black"/>
<path d="M23.2487 40.4615C23.22 40.4615 23.1913 40.4599 23.162 40.4573C22.6759 40.4113 22.312 39.991 22.3365 39.5028C22.3903 38.4292 22.4822 37.411 22.607 36.4461C22.9866 29.988 22.7908 14.9489 13.2823 10.7883C12.8207 10.5862 12.6097 10.0484 12.8118 9.5863C13.0134 9.12524 13.5528 8.91481 14.0138 9.11636C19.6171 11.5679 23.1422 17.6714 24.2058 26.7668C24.3014 27.5819 24.3729 28.3855 24.4262 29.1682C26.9304 22.8402 30.7615 20.6043 30.9897 20.4764C31.4283 20.2284 31.9849 20.3861 32.2324 20.8242C32.4784 21.2628 32.3238 21.8178 31.8867 22.0653C31.7901 22.1217 25.9154 25.6473 24.4408 36.5197C24.3285 38.3796 24.1667 39.5654 24.1515 39.674C24.0883 40.1294 23.6993 40.4615 23.2487 40.4615Z" fill="black"/>
</svg>
