<svg width="32" height="32" viewBox="0 0 32 32" fill="none" xmlns="http://www.w3.org/2000/svg">
<g id="fi_4338295">
<g id="Group">
<path id="Vector" d="M6.59998 19.2399C5.94 20.8999 4.90002 22.5399 3.51001 24.1199C3.07001 24.6199 3.01001 25.3399 3.37 25.8999C3.65003 26.3399 4.10999 26.5799 4.60999 26.5799C4.75 26.5799 4.89002 26.5699 5.03003 26.5199C7.96997 25.6599 14.84 22.6099 15.03 12.8299C15.1 9.05989 12.34 5.8199 8.75 5.4499C6.76001 5.24989 4.78003 5.89985 3.31 7.21986C1.84003 8.54988 1 10.4499 1 12.4299C1 15.7299 3.34003 18.6199 6.59998 19.2399Z" fill="#0FC36D"/>
<path id="Vector_2" d="M24.7098 5.4499C22.7297 5.24989 20.7498 5.89985 19.2798 7.21986C17.8098 8.54988 16.9697 10.4499 16.9697 12.4299C16.9697 15.7299 19.3098 18.6199 22.5698 19.2399C21.9097 20.8999 20.8698 22.5399 19.4797 24.1199C19.0397 24.6199 18.9797 25.3399 19.3398 25.8999C19.6198 26.3399 20.0798 26.5798 20.5798 26.5798C20.7197 26.5798 20.8597 26.5699 20.9998 26.5198C23.9398 25.6599 30.8098 22.6099 30.9998 12.8298V12.6899C30.9998 8.97987 28.2698 5.8199 24.7098 5.4499Z" fill="#0FC36D"/>
</g>
</g>
</svg>
