<svg width="188" height="44" viewBox="0 0 188 44" fill="none" xmlns="http://www.w3.org/2000/svg">
<path d="M1.13636 14.7841V10.7273H20.25V14.7841H13.125V34H8.26136V14.7841H1.13636ZM28.6619 34.3409C26.8968 34.3409 25.3703 33.9659 24.0824 33.2159C22.8021 32.4583 21.8134 31.4053 21.1165 30.0568C20.4195 28.7008 20.071 27.1288 20.071 25.3409C20.071 23.5379 20.4195 21.9621 21.1165 20.6136C21.8134 19.2576 22.8021 18.2045 24.0824 17.4545C25.3703 16.697 26.8968 16.3182 28.6619 16.3182C30.4271 16.3182 31.9498 16.697 33.2301 17.4545C34.518 18.2045 35.5104 19.2576 36.2074 20.6136C36.9044 21.9621 37.2528 23.5379 37.2528 25.3409C37.2528 27.1288 36.9044 28.7008 36.2074 30.0568C35.5104 31.4053 34.518 32.4583 33.2301 33.2159C31.9498 33.9659 30.4271 34.3409 28.6619 34.3409ZM28.6847 30.5909C29.4877 30.5909 30.1581 30.3636 30.696 29.9091C31.2339 29.447 31.6392 28.8182 31.9119 28.0227C32.1922 27.2273 32.3324 26.322 32.3324 25.3068C32.3324 24.2917 32.1922 23.3864 31.9119 22.5909C31.6392 21.7955 31.2339 21.1667 30.696 20.7045C30.1581 20.2424 29.4877 20.0114 28.6847 20.0114C27.8741 20.0114 27.1922 20.2424 26.6392 20.7045C26.0938 21.1667 25.6809 21.7955 25.4006 22.5909C25.1278 23.3864 24.9915 24.2917 24.9915 25.3068C24.9915 26.322 25.1278 27.2273 25.4006 28.0227C25.6809 28.8182 26.0938 29.447 26.6392 29.9091C27.1922 30.3636 27.8741 30.5909 28.6847 30.5909ZM40.3097 34V31.1136L48.8551 20.5341V20.4091H40.6051V16.5455H54.6847V19.6932L46.6619 30.0114V30.1364H54.9801V34H40.3097ZM63.6591 34.3295C62.5455 34.3295 61.553 34.1364 60.6818 33.75C59.8106 33.3561 59.1212 32.7765 58.6136 32.0114C58.1136 31.2386 57.8636 30.2765 57.8636 29.125C57.8636 28.1553 58.0417 27.3409 58.3977 26.6818C58.7538 26.0227 59.2386 25.4924 59.8523 25.0909C60.4659 24.6894 61.1629 24.3864 61.9432 24.1818C62.7311 23.9773 63.5568 23.8333 64.4205 23.75C65.4356 23.6439 66.2538 23.5455 66.875 23.4545C67.4962 23.3561 67.947 23.2121 68.2273 23.0227C68.5076 22.8333 68.6477 22.553 68.6477 22.1818V22.1136C68.6477 21.3939 68.4205 20.8371 67.9659 20.4432C67.5189 20.0492 66.8826 19.8523 66.0568 19.8523C65.1856 19.8523 64.4924 20.0455 63.9773 20.4318C63.4621 20.8106 63.1212 21.2879 62.9545 21.8636L58.4773 21.5C58.7045 20.4394 59.1515 19.5227 59.8182 18.75C60.4848 17.9697 61.3447 17.3712 62.3977 16.9545C63.4583 16.5303 64.6856 16.3182 66.0795 16.3182C67.0492 16.3182 67.9773 16.4318 68.8636 16.6591C69.7576 16.8864 70.5492 17.2386 71.2386 17.7159C71.9356 18.1932 72.4848 18.8068 72.8864 19.5568C73.2879 20.2992 73.4886 21.1894 73.4886 22.2273V34H68.8977V31.5795H68.7614C68.4811 32.125 68.1061 32.6061 67.6364 33.0227C67.1667 33.4318 66.6023 33.7538 65.9432 33.9886C65.2841 34.2159 64.5227 34.3295 63.6591 34.3295ZM65.0455 30.9886C65.7576 30.9886 66.3864 30.8485 66.9318 30.5682C67.4773 30.2803 67.9053 29.8939 68.2159 29.4091C68.5265 28.9242 68.6818 28.375 68.6818 27.7614V25.9091C68.5303 26.0076 68.322 26.0985 68.0568 26.1818C67.7992 26.2576 67.5076 26.3295 67.1818 26.3977C66.8561 26.4583 66.5303 26.5152 66.2045 26.5682C65.8788 26.6136 65.5833 26.6553 65.3182 26.6932C64.75 26.7765 64.2538 26.9091 63.8295 27.0909C63.4053 27.2727 63.0758 27.5189 62.8409 27.8295C62.6061 28.1326 62.4886 28.5114 62.4886 28.9659C62.4886 29.625 62.7273 30.1288 63.2045 30.4773C63.6894 30.8182 64.303 30.9886 65.0455 30.9886ZM84.7415 10.7273H90.8097L97.2188 26.3636H97.4915L103.901 10.7273H109.969V34H105.196V18.8523H105.003L98.9801 33.8864H95.7301L89.7074 18.7955H89.5142V34H84.7415V10.7273ZM118.909 34.3295C117.795 34.3295 116.803 34.1364 115.932 33.75C115.061 33.3561 114.371 32.7765 113.864 32.0114C113.364 31.2386 113.114 30.2765 113.114 29.125C113.114 28.1553 113.292 27.3409 113.648 26.6818C114.004 26.0227 114.489 25.4924 115.102 25.0909C115.716 24.6894 116.413 24.3864 117.193 24.1818C117.981 23.9773 118.807 23.8333 119.67 23.75C120.686 23.6439 121.504 23.5455 122.125 23.4545C122.746 23.3561 123.197 23.2121 123.477 23.0227C123.758 22.8333 123.898 22.553 123.898 22.1818V22.1136C123.898 21.3939 123.67 20.8371 123.216 20.4432C122.769 20.0492 122.133 19.8523 121.307 19.8523C120.436 19.8523 119.742 20.0455 119.227 20.4318C118.712 20.8106 118.371 21.2879 118.205 21.8636L113.727 21.5C113.955 20.4394 114.402 19.5227 115.068 18.75C115.735 17.9697 116.595 17.3712 117.648 16.9545C118.708 16.5303 119.936 16.3182 121.33 16.3182C122.299 16.3182 123.227 16.4318 124.114 16.6591C125.008 16.8864 125.799 17.2386 126.489 17.7159C127.186 18.1932 127.735 18.8068 128.136 19.5568C128.538 20.2992 128.739 21.1894 128.739 22.2273V34H124.148V31.5795H124.011C123.731 32.125 123.356 32.6061 122.886 33.0227C122.417 33.4318 121.852 33.7538 121.193 33.9886C120.534 34.2159 119.773 34.3295 118.909 34.3295ZM120.295 30.9886C121.008 30.9886 121.636 30.8485 122.182 30.5682C122.727 30.2803 123.155 29.8939 123.466 29.4091C123.777 28.9242 123.932 28.375 123.932 27.7614V25.9091C123.78 26.0076 123.572 26.0985 123.307 26.1818C123.049 26.2576 122.758 26.3295 122.432 26.3977C122.106 26.4583 121.78 26.5152 121.455 26.5682C121.129 26.6136 120.833 26.6553 120.568 26.6932C120 26.7765 119.504 26.9091 119.08 27.0909C118.655 27.2727 118.326 27.5189 118.091 27.8295C117.856 28.1326 117.739 28.5114 117.739 28.9659C117.739 29.625 117.977 30.1288 118.455 30.4773C118.939 30.8182 119.553 30.9886 120.295 30.9886ZM136.881 28.9773L136.892 23.1705H137.597L143.188 16.5455H148.744L141.233 25.3182H140.085L136.881 28.9773ZM132.494 34V10.7273H137.335V34H132.494ZM143.403 34L138.267 26.3977L141.494 22.9773L149.074 34H143.403ZM158.287 34.3409C156.522 34.3409 154.995 33.9659 153.707 33.2159C152.427 32.4583 151.438 31.4053 150.741 30.0568C150.045 28.7008 149.696 27.1288 149.696 25.3409C149.696 23.5379 150.045 21.9621 150.741 20.6136C151.438 19.2576 152.427 18.2045 153.707 17.4545C154.995 16.697 156.522 16.3182 158.287 16.3182C160.052 16.3182 161.575 16.697 162.855 17.4545C164.143 18.2045 165.135 19.2576 165.832 20.6136C166.529 21.9621 166.878 23.5379 166.878 25.3409C166.878 27.1288 166.529 28.7008 165.832 30.0568C165.135 31.4053 164.143 32.4583 162.855 33.2159C161.575 33.9659 160.052 34.3409 158.287 34.3409ZM158.31 30.5909C159.113 30.5909 159.783 30.3636 160.321 29.9091C160.859 29.447 161.264 28.8182 161.537 28.0227C161.817 27.2273 161.957 26.322 161.957 25.3068C161.957 24.2917 161.817 23.3864 161.537 22.5909C161.264 21.7955 160.859 21.1667 160.321 20.7045C159.783 20.2424 159.113 20.0114 158.31 20.0114C157.499 20.0114 156.817 20.2424 156.264 20.7045C155.719 21.1667 155.306 21.7955 155.026 22.5909C154.753 23.3864 154.616 24.2917 154.616 25.3068C154.616 26.322 154.753 27.2273 155.026 28.0227C155.306 28.8182 155.719 29.447 156.264 29.9091C156.817 30.3636 157.499 30.5909 158.31 30.5909ZM174.866 23.9091V34H170.026V16.5455H174.639V19.625H174.844C175.23 18.6098 175.878 17.8068 176.787 17.2159C177.696 16.6174 178.798 16.3182 180.094 16.3182C181.306 16.3182 182.363 16.5833 183.264 17.1136C184.166 17.6439 184.866 18.4015 185.366 19.3864C185.866 20.3636 186.116 21.5303 186.116 22.8864V34H181.276V23.75C181.283 22.6818 181.01 21.8485 180.457 21.25C179.904 20.6439 179.143 20.3409 178.173 20.3409C177.522 20.3409 176.946 20.4811 176.446 20.7614C175.954 21.0417 175.567 21.4508 175.287 21.9886C175.014 22.5189 174.874 23.1591 174.866 23.9091Z" fill="#0FC46D"/>
</svg>
