<svg width="72" height="72" viewBox="0 0 72 72" fill="none" xmlns="http://www.w3.org/2000/svg">
<path d="M42.1798 44.0719C42.1798 44.0719 35.5639 25.5476 59.3806 26.8712C59.3806 26.8712 60.7041 53.3331 42.1798 44.0719Z" fill="#0FC36D"/>
<path d="M49.2188 47.5342C46.9221 47.5342 44.3468 46.825 41.5117 45.4075C41.1683 45.2349 40.9034 44.9359 40.7735 44.5745C40.6582 44.2506 37.9898 36.5752 42.2303 30.8992C45.3123 26.7731 51.1071 24.9147 59.4635 25.3803C60.2257 25.4222 60.8332 26.0331 60.8708 26.797C60.9007 27.39 61.5167 41.3865 54.3796 46.0467C52.8621 47.0387 51.1379 47.5342 49.2188 47.5342ZM43.4163 43.0108C47.339 44.8504 50.4748 45.0307 52.7476 43.5466C56.9797 40.7825 57.8948 32.5773 57.917 28.3068C51.3694 28.147 46.9118 29.6226 44.6228 32.6858C41.8988 36.3334 42.9575 41.3507 43.4163 43.0108Z" fill="black"/>
<path d="M32.3966 25.4877C32.3966 25.4877 12.1156 32.9427 13.3272 6.7687C13.3272 6.7687 42.3816 5.047 32.3966 25.4877Z" fill="#0FC36D"/>
<path d="M26.3813 27.9682C23.7334 27.9682 20.6788 27.4009 18.0129 25.4485C13.4912 22.135 11.4132 15.8267 11.8353 6.69955C11.8712 5.93654 12.4762 5.32305 13.2392 5.27776C13.8851 5.24102 29.1745 4.42503 34.319 12.1475C36.7149 15.7421 36.5184 20.45 33.7372 26.1432C33.568 26.4892 33.2724 26.7567 32.9109 26.8891C32.7101 26.9634 29.9067 27.9682 26.3813 27.9682ZM14.7746 8.21618C14.6456 15.5268 16.3263 20.5098 19.7774 23.039C23.9094 26.0663 29.5513 24.7795 31.3251 24.2625C33.3544 19.8588 33.5261 16.3427 31.8343 13.8034C28.69 9.08343 19.4689 8.16064 14.7746 8.21618Z" fill="black"/>
<path d="M38.0437 66.2096C37.9967 66.2096 37.9497 66.2071 37.9018 66.2028C37.1063 66.1276 36.5108 65.4398 36.551 64.6409C36.639 62.8842 36.7893 61.218 36.9936 59.639C37.6147 49.0713 37.2943 24.4618 21.735 17.6536C20.9797 17.3229 20.6345 16.4428 20.9651 15.6867C21.2949 14.9322 22.1776 14.5879 22.9321 14.9177C32.101 18.9293 37.8694 28.9168 39.6098 43.8003C39.7662 45.1341 39.8833 46.449 39.9704 47.7298C44.0683 37.3749 50.3373 33.7162 50.7107 33.5068C51.4284 33.101 52.3393 33.359 52.7443 34.0759C53.1467 34.7936 52.8938 35.7019 52.1786 36.1069C52.0206 36.1992 42.4073 41.9684 39.9943 59.7595C39.8106 62.803 39.5458 64.7434 39.521 64.9211C39.4176 65.6662 38.781 66.2096 38.0437 66.2096Z" fill="black"/>
</svg>
