<svg width="18" height="12" viewBox="0 0 18 12" fill="none" xmlns="http://www.w3.org/2000/svg">
<path d="M6.72239 0.818182H8.56685V7.47017C8.56685 8.19934 8.3945 8.84067 8.0498 9.39418C7.70842 9.94768 7.22784 10.3802 6.60804 10.6918C5.98825 11 5.26406 11.1541 4.43546 11.1541C3.60355 11.1541 2.87769 11 2.2579 10.6918C1.63811 10.3802 1.15752 9.94768 0.81614 9.39418C0.474757 8.84067 0.304066 8.19934 0.304066 7.47017V0.818182H2.14853V7.31605C2.14853 7.74029 2.24133 8.11813 2.42694 8.44957C2.61586 8.78101 2.88101 9.04119 3.22239 9.23011C3.56377 9.41572 3.96813 9.50852 4.43546 9.50852C4.90279 9.50852 5.30714 9.41572 5.64853 9.23011C5.99322 9.04119 6.25837 8.78101 6.44398 8.44957C6.62959 8.11813 6.72239 7.74029 6.72239 7.31605V0.818182ZM10.3827 11V9.85156L15.6029 2.36435H10.3529V0.818182H17.8898V1.96662L12.6746 9.45384H17.9197V11H10.3827Z" fill="#0FC36D"/>
</svg>
